<?xml version="1.0" standalone="no"?>
<!DOCTYPE svg PUBLIC "-//W3C//DTD SVG 20010904//EN"
 "http://www.w3.org/TR/2001/REC-SVG-20010904/DTD/svg10.dtd">
<svg version="1.0" xmlns="http://www.w3.org/2000/svg"
 width="1969.000000pt" height="2430.000000pt" viewBox="0 0 1969.000000 2430.000000"
 preserveAspectRatio="xMidYMid meet">

<g transform="translate(0.000000,2430.000000) scale(0.100000,-0.100000)"
fill="#000000" stroke="none">
<path d="M4260 24289 c-361 -42 -725 -196 -1025 -434 -109 -86 -279 -259 -372
-378 -297 -382 -484 -828 -560 -1342 -22 -151 -25 -630 -5 -770 54 -371 141
-656 288 -946 128 -253 252 -425 455 -633 l136 -139 -29 -65 c-117 -259 -263
-638 -366 -952 -63 -192 -92 -291 -175 -591 -23 -85 -26 -89 -133 -210 -164
-187 -210 -241 -336 -399 -595 -748 -1085 -1592 -1438 -2475 -585 -1464 -806
-3046 -649 -4645 165 -1686 779 -3321 1766 -4708 l74 -104 -40 -53 c-121 -160
-292 -474 -379 -698 -187 -477 -303 -1039 -348 -1684 -19 -283 -23 -839 -6
-978 43 -349 103 -560 232 -820 170 -341 433 -608 795 -808 454 -250 1019
-377 1945 -439 263 -17 1366 -17 1630 0 840 55 1373 166 1817 377 481 229 819
583 999 1047 35 92 38 97 63 93 39 -7 291 -33 426 -45 365 -31 957 -40 1330
-20 238 13 631 47 736 65 25 4 28 -1 49 -58 12 -34 50 -120 85 -192 192 -392
499 -686 928 -890 447 -212 973 -321 1817 -377 264 -17 1367 -17 1630 0 806
54 1304 150 1740 339 277 120 498 270 690 470 136 141 224 265 310 438 129
260 189 471 232 820 17 139 13 695 -6 978 -45 645 -162 1209 -348 1684 -88
223 -259 540 -379 699 l-40 52 77 109 c1342 1882 1972 4195 1779 6527 -54 648
-188 1364 -367 1961 -287 960 -695 1832 -1239 2650 -333 500 -648 895 -1081
1354 -103 109 -119 131 -133 180 -108 381 -276 847 -440 1222 l-65 147 128
129 c695 697 950 1808 645 2811 -236 781 -787 1389 -1458 1611 -323 107 -630
128 -960 65 -522 -100 -1021 -446 -1347 -933 -28 -42 -52 -77 -53 -79 -1 -1
-50 27 -108 62 -868 532 -1836 861 -2807 955 -557 54 -1130 34 -1678 -60 -819
-139 -1647 -453 -2356 -891 -123 -76 -110 -75 -147 -15 -145 236 -406 500
-664 672 -371 246 -840 363 -1265 314z m320 -349 c322 -28 586 -131 855 -334
217 -164 349 -320 575 -682 39 -62 87 -93 147 -96 58 -2 76 7 234 108 1431
915 3048 1217 4654 869 725 -156 1445 -464 2143 -915 85 -54 146 -71 206 -56
41 10 94 64 133 135 136 248 370 513 594 674 107 76 316 184 433 223 503 165
1032 70 1471 -265 33 -25 109 -93 168 -150 362 -352 596 -847 668 -1416 18
-144 16 -482 -5 -635 -84 -622 -377 -1177 -799 -1513 -93 -74 -111 -100 -115
-171 -4 -58 0 -69 76 -236 440 -969 719 -2039 817 -3130 8 -96 20 -194 27
-218 8 -33 36 -71 117 -160 219 -242 378 -444 539 -683 565 -845 833 -1761
791 -2699 -39 -874 -346 -1710 -913 -2490 -366 -504 -866 -999 -1422 -1407
-1487 -1092 -3452 -1741 -5609 -1853 -279 -15 -946 -15 -1220 -1 -1314 70
-2532 329 -3657 780 -1678 671 -2997 1736 -3705 2991 -426 755 -628 1570 -584
2361 6 116 18 266 27 333 120 950 579 1886 1312 2678 112 121 111 119 133 351
105 1122 370 2150 799 3102 94 208 99 222 100 276 0 59 -32 105 -132 186 -87
72 -246 235 -309 318 -135 177 -279 440 -349 640 -235 672 -191 1404 121 2028
301 599 835 998 1414 1056 116 12 138 12 265 1z m12639 -6660 c284 -351 548
-726 768 -1095 715 -1197 1148 -2492 1297 -3880 63 -585 67 -1289 10 -1900
-134 -1441 -598 -2829 -1362 -4075 -91 -148 -328 -507 -359 -542 -14 -15 -22
-11 -101 56 -271 228 -543 368 -902 465 -380 102 -900 106 -1420 11 -616 -114
-1504 -427 -2053 -726 -490 -265 -836 -521 -1167 -860 -527 -540 -816 -1131
-917 -1874 -25 -189 -25 -681 0 -854 10 -65 17 -120 15 -121 -6 -5 -297 -35
-503 -52 -295 -24 -1065 -24 -1360 0 -206 17 -497 47 -503 52 -2 1 5 56 15
121 25 170 25 675 0 854 -69 488 -198 866 -428 1247 -144 240 -285 419 -508
646 -538 548 -1262 971 -2218 1297 -651 223 -1134 323 -1613 337 -692 19
-1228 -153 -1692 -543 -79 -67 -87 -71 -101 -56 -31 35 -268 394 -359 542
-649 1057 -1080 2214 -1278 3424 -88 539 -123 976 -123 1551 0 509 25 878 93
1355 212 1492 789 2930 1671 4161 120 168 299 402 304 397 2 -2 -7 -73 -20
-158 -33 -213 -61 -434 -80 -633 l-16 -169 -113 -128 c-206 -233 -345 -414
-511 -665 -786 -1181 -1032 -2514 -703 -3810 357 -1411 1407 -2713 2943 -3650
1456 -887 3214 -1404 5160 -1516 272 -16 1060 -16 1330 -1 2100 122 3964 705
5471 1713 712 476 1332 1057 1779 1668 567 776 883 1568 982 2461 20 188 23
639 4 840 -86 949 -452 1840 -1089 2660 -64 82 -187 227 -325 386 l-39 43 -14
153 c-28 304 -107 851 -153 1058 l-9 45 39 -45 c22 -25 93 -110 158 -190z
m-13019 -11265 c742 -91 1768 -450 2440 -853 336 -202 554 -367 803 -612 526
-513 801 -1064 888 -1775 23 -179 17 -578 -9 -752 -56 -358 -163 -628 -341
-851 -24 -30 -45 -51 -48 -48 -3 2 -9 40 -14 84 -12 103 -50 234 -99 337 -242
506 -811 777 -1365 649 -139 -32 -305 -103 -414 -177 -116 -78 -253 -212 -324
-317 -17 -25 -32 -47 -33 -49 -2 -2 -36 24 -76 57 -136 111 -267 183 -423 231
-147 45 -214 54 -375 54 -213 0 -365 -36 -552 -128 -73 -36 -176 -102 -214
-136 -21 -19 -21 -19 -125 85 -228 228 -498 347 -819 363 -463 23 -903 -225
-1119 -629 -46 -85 -94 -217 -110 -303 -23 -119 -18 -112 -53 -68 -121 150
-231 380 -288 601 -54 213 -71 392 -71 724 1 740 93 1391 272 1923 232 689
605 1165 1104 1405 226 109 454 171 740 200 122 12 471 4 625 -15z m11900 14
c757 -68 1294 -430 1649 -1111 225 -431 369 -952 440 -1593 38 -337 54 -973
31 -1194 -37 -349 -122 -614 -276 -852 l-48 -74 -12 69 c-39 209 -147 415
-299 575 -175 183 -364 289 -620 348 -208 49 -468 32 -677 -43 -222 -80 -428
-230 -564 -411 -32 -43 -62 -82 -66 -87 -4 -5 -26 8 -50 30 -93 85 -218 163
-348 217 -395 164 -860 108 -1205 -145 l-60 -44 -90 91 c-179 182 -387 295
-645 351 -114 25 -361 26 -476 1 -530 -112 -906 -520 -959 -1042 l-7 -70 -49
55 c-165 185 -284 416 -353 683 -53 202 -70 358 -70 642 -1 305 18 476 80 730
124 507 366 932 758 1334 447 457 1010 810 1766 1108 828 326 1604 482 2150
432z m-9145 -4184 c94 -26 254 -108 327 -169 170 -141 288 -371 288 -562 0
-106 -22 -157 -99 -235 -111 -110 -312 -198 -662 -289 -392 -102 -610 -114
-743 -42 -47 25 -51 30 -49 62 14 225 14 276 4 351 -17 119 -56 252 -97 330
-14 29 -14 33 22 105 115 228 340 401 599 458 91 20 323 15 410 -9z m9924 10
c232 -49 445 -198 559 -391 49 -82 98 -225 107 -310 25 -220 -121 -360 -508
-489 -388 -129 -730 -187 -896 -151 -92 19 -164 59 -156 86 3 10 10 62 14 114
15 179 -15 374 -81 534 -35 84 -33 94 32 202 97 165 272 306 460 372 135 48
334 62 469 33z m-13722 -36 c109 -14 258 -67 354 -125 78 -47 208 -167 248
-228 l19 -28 -44 -82 c-54 -102 -108 -264 -124 -376 -16 -111 -8 -324 15 -405
31 -106 31 -102 -11 -109 -71 -14 -248 -7 -364 14 -155 28 -396 91 -559 146
-259 88 -395 176 -458 297 -71 136 -7 398 143 585 181 228 489 351 781 311z
m10073 -19 c177 -42 370 -164 478 -303 l45 -57 -46 -88 c-86 -163 -137 -365
-137 -542 0 -86 21 -225 44 -287 8 -23 12 -44 8 -46 -46 -26 -248 -24 -399 3
-154 27 -386 88 -543 141 -274 92 -409 178 -472 299 -30 59 -37 180 -14 270
37 145 97 255 195 362 212 230 525 322 841 248z m-8185 -185 c303 -85 539
-324 612 -621 23 -95 23 -271 1 -345 -59 -190 -226 -265 -643 -289 -276 -16
-582 1 -739 41 -158 40 -264 121 -303 232 -25 72 -24 284 1 377 89 323 350
557 696 624 56 10 316 -2 375 -19z m9923 9 c309 -63 560 -292 653 -594 20 -63
23 -97 23 -215 1 -122 -2 -147 -22 -197 -43 -106 -140 -177 -298 -217 -159
-40 -462 -57 -739 -41 -462 26 -623 116 -655 365 -18 142 8 288 76 432 114
239 332 410 596 468 87 19 272 18 366 -1z"/>
<path d="M4195 23155 c-669 -105 -1159 -781 -1132 -1560 13 -357 106 -647 295
-920 67 -96 248 -281 315 -320 42 -24 55 -27 103 -22 81 8 110 36 205 195 373
619 819 1157 1294 1561 204 173 225 199 225 285 0 116 -284 463 -493 601 -242
159 -535 224 -812 180z m370 -365 c88 -22 168 -58 242 -107 69 -45 219 -187
258 -244 l28 -39 -44 -38 c-158 -134 -458 -430 -609 -602 -244 -279 -547 -686
-684 -922 -15 -27 -32 -48 -36 -48 -5 0 -32 33 -61 73 -107 146 -190 346 -225
540 -23 127 -23 363 0 487 114 631 617 1030 1131 900z"/>
<path d="M14815 23159 c-107 -15 -238 -58 -350 -114 -225 -111 -411 -287 -560
-529 -40 -64 -50 -89 -53 -135 -6 -86 12 -117 119 -207 171 -144 273 -238 410
-375 375 -377 686 -777 959 -1234 103 -172 124 -199 172 -221 52 -23 128 -14
181 23 71 49 225 211 290 306 183 265 274 526 297 856 45 645 -274 1258 -789
1518 -197 99 -461 143 -676 112z m240 -349 c110 -13 180 -33 267 -75 620 -305
807 -1243 371 -1861 -50 -71 -74 -95 -80 -78 -8 23 -223 346 -314 471 -262
362 -616 753 -931 1031 l-118 104 44 56 c149 192 366 324 577 351 90 12 85 12
184 1z"/>
<path d="M6870 19944 c-278 -38 -596 -151 -835 -297 -360 -220 -664 -555 -835
-922 -146 -311 -210 -598 -210 -940 0 -346 72 -657 222 -960 114 -229 225
-383 412 -571 293 -294 622 -481 1016 -578 196 -49 299 -61 525 -61 225 0 311
10 513 60 790 194 1402 805 1596 1595 48 193 60 299 60 515 0 216 -12 322 -60
515 -99 402 -284 731 -578 1026 -341 341 -776 556 -1256 619 -141 19 -427 18
-570 -1z m488 -344 c192 -21 440 -94 610 -179 190 -95 330 -197 482 -350 284
-285 450 -612 515 -1016 20 -119 22 -381 6 -505 -25 -183 -94 -407 -176 -570
-275 -547 -780 -911 -1389 -1001 -106 -16 -389 -16 -491 0 -612 94 -1122 464
-1387 1004 -119 242 -175 464 -185 734 -20 514 169 995 532 1358 302 302 672
477 1120 529 69 7 273 5 363 -4z"/>
<path d="M7524 18085 c-229 -50 -425 -226 -496 -445 -29 -93 -36 -255 -13
-354 52 -238 244 -436 481 -496 306 -79 625 70 764 355 96 198 90 420 -17 615
-56 101 -180 218 -284 268 -139 67 -295 88 -435 57z"/>
<path d="M11530 19945 c-366 -50 -724 -198 -1025 -424 -120 -90 -328 -295
-413 -408 -415 -550 -552 -1232 -377 -1886 100 -375 289 -701 565 -977 542
-542 1324 -760 2062 -575 283 71 562 206 801 387 113 86 318 293 408 413 231
308 374 659 424 1038 19 150 19 403 0 549 -129 980 -901 1754 -1878 1883 -143
18 -432 18 -567 0z m585 -358 c662 -123 1187 -559 1412 -1172 249 -676 74
-1438 -443 -1935 -448 -430 -1059 -605 -1654 -474 -701 156 -1238 693 -1394
1394 -135 612 59 1253 511 1691 152 147 279 237 469 332 166 83 404 154 589
176 109 13 412 6 510 -12z"/>
<path d="M11234 18085 c-183 -40 -336 -151 -436 -316 -58 -96 -80 -175 -85
-309 -6 -136 14 -227 75 -345 50 -96 172 -218 269 -268 338 -176 748 -42 913
298 96 197 89 420 -17 615 -56 101 -180 218 -284 268 -139 67 -295 88 -435 57z"/>
<path d="M5535 13949 c-79 -12 -117 -25 -197 -66 -207 -108 -352 -337 -415
-658 -22 -111 -24 -428 -4 -550 102 -628 446 -1165 886 -1385 123 -61 191 -80
318 -87 117 -7 194 7 292 52 512 235 627 1122 244 1882 -170 336 -426 610
-687 734 -143 69 -308 98 -437 78z"/>
<path d="M13780 13949 c-229 -35 -468 -182 -665 -410 -621 -719 -663 -1912
-79 -2257 105 -62 166 -76 314 -76 121 0 144 3 220 28 168 55 311 147 461 296
450 447 676 1201 534 1783 -47 192 -122 334 -240 452 -150 150 -341 215 -545
184z"/>
<path d="M12891 9743 c-33 -12 -72 -43 -147 -118 -57 -57 -127 -123 -156 -148
-129 -110 -399 -283 -597 -381 -218 -110 -537 -223 -722 -256 -173 -32 -264
-88 -309 -192 -58 -134 -12 -292 147 -506 82 -110 394 -419 553 -545 316 -253
487 -347 630 -347 252 0 830 278 1060 510 125 127 150 203 150 475 0 490 -101
1064 -231 1316 -91 175 -228 245 -378 192z m123 -506 c78 -267 136 -704 136
-1007 -1 -158 -8 -185 -67 -239 -131 -119 -417 -276 -642 -351 -144 -48 -154
-48 -242 4 -186 109 -449 326 -655 538 -113 116 -234 271 -234 298 0 5 17 12
38 16 196 33 559 162 804 285 132 66 333 186 458 272 130 91 183 133 289 230
57 53 76 66 82 55 5 -8 19 -53 33 -101z"/>
</g>
</svg>
